<?xml version="1.0" standalone="no"?><svg xmlns="http://www.w3.org/2000/svg" viewBox="0 0 1440 320"><path fill="#ffa500" fill-opacity="1" d="M0,128L9.6,128C19.2,128,38,128,58,160C76.8,192,96,256,115,277.3C134.4,299,154,277,173,229.3C192,181,211,107,230,74.7C249.6,43,269,53,288,96C307.2,139,326,213,346,229.3C364.8,245,384,203,403,197.3C422.4,192,442,224,461,240C480,256,499,256,518,234.7C537.6,213,557,171,576,160C595.2,149,614,171,634,197.3C652.8,224,672,256,691,229.3C710.4,203,730,117,749,112C768,107,787,181,806,229.3C825.6,277,845,299,864,256C883.2,213,902,107,922,58.7C940.8,11,960,21,979,58.7C998.4,96,1018,160,1037,186.7C1056,213,1075,203,1094,202.7C1113.6,203,1133,213,1152,197.3C1171.2,181,1190,139,1210,138.7C1228.8,139,1248,181,1267,165.3C1286.4,149,1306,75,1325,64C1344,53,1363,107,1382,160C1401.6,213,1421,267,1430,293.3L1440,320L1440,320L1430.4,320C1420.8,320,1402,320,1382,320C1363.2,320,1344,320,1325,320C1305.6,320,1286,320,1267,320C1248,320,1229,320,1210,320C1190.4,320,1171,320,1152,320C1132.8,320,1114,320,1094,320C1075.2,320,1056,320,1037,320C1017.6,320,998,320,979,320C960,320,941,320,922,320C902.4,320,883,320,864,320C844.8,320,826,320,806,320C787.2,320,768,320,749,320C729.6,320,710,320,691,320C672,320,653,320,634,320C614.4,320,595,320,576,320C556.8,320,538,320,518,320C499.2,320,480,320,461,320C441.6,320,422,320,403,320C384,320,365,320,346,320C326.4,320,307,320,288,320C268.8,320,250,320,230,320C211.2,320,192,320,173,320C153.6,320,134,320,115,320C96,320,77,320,58,320C38.4,320,19,320,10,320L0,320Z"></path></svg>